# xmcd
# 
# Track frame offsets:
#     183
#     12328
#     32443
#     50273
#     70065
#     87958
#     103050
#     122848
#     157818
# 
# Disc length: 2354
# 
# Revision: 4
# Processed by: cddbd v1.5.2PL0 Copyright (c) Steve Scherf et al.
# Submitted via: fre:ac v1.0.17
# 
DISCID=65093009
DTITLE=Eddie Boyd - A Sad Day
DYEAR=1980
DGENRE=Blues
TTITLE0=My Mood
TTITLE1=Let It Be Me
TTITLE2=It's Too Bad
TTITLE3=On The Sunny Side Of The Street
TTITLE4=Love Sick Mind
TTITLE5=The Charm
TTITLE6=My Lady
TTITLE7=A Sad Day
TTITLE8=In The Dark
EXTD=YEAR: 1980
EXTT0=
EXTT1=
EXTT2=
EXTT3=
EXTT4=
EXTT5=
EXTT6=
EXTT7=
EXTT8=
PLAYORDER=
